<mxfile host="Electron" modified="2025-01-13T12:54:20.239Z" agent="Mozilla/5.0 (Windows NT 10.0; Win64; x64) AppleWebKit/537.36 (KHTML, like Gecko) draw.io/24.2.5 Chrome/120.0.6099.109 Electron/28.1.0 Safari/537.36" etag="fHfk_vgaWa06zX234Wtd" version="24.2.5" type="device">
  <diagram id="C5RBs43oDa-KdzZeNtuy" name="Page-1">
    <mxGraphModel dx="2629" dy="2086" grid="1" gridSize="10" guides="1" tooltips="1" connect="1" arrows="1" fold="1" page="1" pageScale="1" pageWidth="827" pageHeight="1169" math="0" shadow="0">
      <root>
        <mxCell id="WIyWlLk6GJQsqaUBKTNV-0" />
        <mxCell id="WIyWlLk6GJQsqaUBKTNV-1" parent="WIyWlLk6GJQsqaUBKTNV-0" />
        <mxCell id="DD-LH06I2SyLj-7gW_YG-0" value="&lt;p style=&quot;margin:0px;margin-top:4px;text-align:center;&quot;&gt;&lt;b&gt;Class _CollOp&lt;/b&gt;&lt;/p&gt;&lt;hr size=&quot;1&quot;&gt;&lt;p style=&quot;margin:0px;margin-left:4px;&quot;&gt;+ self.op&lt;/p&gt;&lt;p style=&quot;margin:0px;margin-left:4px;&quot;&gt;+ self.tensor&lt;/p&gt;&lt;p style=&quot;margin:0px;margin-left:4px;&quot;&gt;+ self.dst_tensor&lt;/p&gt;&lt;p style=&quot;margin:0px;margin-left:4px;&quot;&gt;+ self.redop&lt;/p&gt;&lt;p style=&quot;margin:0px;margin-left:4px;&quot;&gt;+ self.root&lt;/p&gt;&lt;p style=&quot;margin:0px;margin-left:4px;&quot;&gt;&lt;/p&gt;" style="verticalAlign=top;align=left;overflow=fill;html=1;whiteSpace=wrap;" vertex="1" parent="WIyWlLk6GJQsqaUBKTNV-1">
          <mxGeometry x="170" y="-150" width="160" height="110" as="geometry" />
        </mxCell>
        <mxCell id="DD-LH06I2SyLj-7gW_YG-1" value="&lt;p style=&quot;margin:0px;margin-top:4px;text-align:center;&quot;&gt;&lt;b&gt;Class _World&lt;/b&gt;&lt;/p&gt;&lt;hr size=&quot;1&quot;&gt;&lt;p style=&quot;margin:0px;margin-left:4px;&quot;&gt;+ self._default_pg = None&lt;/p&gt;&lt;p style=&quot;margin:0px;margin-left:4px;&quot;&gt;+ self._pg_coalesce_state = {&lt;font color=&quot;#0000ff&quot;&gt;PG&amp;nbsp; : _CollOp&lt;/font&gt;}&lt;/p&gt;&lt;p style=&quot;margin:0px;margin-left:4px;&quot;&gt;+ self._pg_default_device = {&lt;font color=&quot;#0000ff&quot;&gt;PG&amp;nbsp; : device&lt;/font&gt;}&lt;/p&gt;&lt;p style=&quot;margin:0px;margin-left:4px;&quot;&gt;&lt;/p&gt;&lt;hr size=&quot;1&quot;&gt;&lt;p style=&quot;margin:0px;margin-left:4px;&quot;&gt;+ &lt;font color=&quot;#0000ff&quot;&gt;default_pg&lt;/font&gt;()&lt;/p&gt;&lt;p style=&quot;margin:0px;margin-left:4px;&quot;&gt;&lt;font color=&quot;#0000ff&quot;&gt;+ pg_map();&lt;/font&gt;&lt;/p&gt;&lt;p style=&quot;margin:0px;margin-left:4px;&quot;&gt;&lt;font color=&quot;#0000ff&quot;&gt;+ pg_names();&lt;/font&gt;&lt;/p&gt;&lt;p style=&quot;margin:0px;margin-left:4px;&quot;&gt;+ &lt;font color=&quot;#0000ff&quot;&gt;pg_group_ranks&lt;/font&gt;(); # {global rank : local rank}&lt;/p&gt;&lt;p style=&quot;margin:0px;margin-left:4px;&quot;&gt;+ &lt;font color=&quot;#0000ff&quot;&gt;pg_backend_config&lt;/font&gt;();&lt;/p&gt;&lt;p style=&quot;margin:0px;margin-left:4px;&quot;&gt;+ &lt;font color=&quot;#0000ff&quot;&gt;group_count&lt;/font&gt;()&lt;/p&gt;&lt;p style=&quot;margin:0px;margin-left:4px;&quot;&gt;&lt;font color=&quot;#0000ff&quot;&gt;+ tags_to_pg()&lt;/font&gt;&lt;/p&gt;&lt;p style=&quot;margin:0px;margin-left:4px;&quot;&gt;+ &lt;font color=&quot;#0000ff&quot;&gt;pg_config_info&lt;/font&gt;()&lt;/p&gt;" style="verticalAlign=top;align=left;overflow=fill;html=1;whiteSpace=wrap;" vertex="1" parent="WIyWlLk6GJQsqaUBKTNV-1">
          <mxGeometry x="95" y="20" width="310" height="210" as="geometry" />
        </mxCell>
        <mxCell id="DD-LH06I2SyLj-7gW_YG-2" value="n" style="endArrow=open;html=1;endSize=12;startArrow=diamondThin;startSize=14;startFill=0;edgeStyle=orthogonalEdgeStyle;align=left;verticalAlign=bottom;rounded=0;entryX=0.5;entryY=1;entryDx=0;entryDy=0;" edge="1" parent="WIyWlLk6GJQsqaUBKTNV-1" source="DD-LH06I2SyLj-7gW_YG-1" target="DD-LH06I2SyLj-7gW_YG-0">
          <mxGeometry x="-0.6159" y="-5" relative="1" as="geometry">
            <mxPoint x="-50" y="190" as="sourcePoint" />
            <mxPoint x="110" y="190" as="targetPoint" />
            <mxPoint as="offset" />
          </mxGeometry>
        </mxCell>
        <mxCell id="DD-LH06I2SyLj-7gW_YG-3" value="&lt;div style=&quot;color: rgb(204, 204, 204); background-color: rgb(31, 31, 31); font-family: Consolas, &amp;quot;Courier New&amp;quot;, monospace; font-weight: normal; line-height: 133%; font-size: 10px;&quot;&gt;&lt;div style=&quot;line-height: 133%;&quot;&gt;&lt;span style=&quot;color: #6a9955;&quot;&gt;# DO NOT USE THESE FIELDS DIRECTLY.&lt;/span&gt;&lt;/div&gt;&lt;div style=&quot;line-height: 133%;&quot;&gt;&lt;span style=&quot;color: #6a9955;&quot;&gt;# Use them through the _world object to make sure &lt;/span&gt;&lt;/div&gt;&lt;div style=&quot;line-height: 133%;&quot;&gt;&lt;span style=&quot;color: #6a9955;&quot;&gt;# the _world override mechanism&lt;/span&gt;&lt;/div&gt;&lt;div style=&quot;line-height: 133%;&quot;&gt;&lt;span style=&quot;color: #9cdcfe;&quot;&gt;_pg_map&lt;/span&gt;&lt;span style=&quot;color: #cccccc;&quot;&gt;: &lt;/span&gt;&lt;span style=&quot;color: #9cdcfe;&quot;&gt;Dict&lt;/span&gt;&lt;span style=&quot;color: #cccccc;&quot;&gt;[&lt;/span&gt;&lt;span style=&quot;color: #4ec9b0;&quot;&gt;ProcessGroup&lt;/span&gt;&lt;span style=&quot;color: #cccccc;&quot;&gt;, &lt;/span&gt;&lt;span style=&quot;color: #4ec9b0;&quot;&gt;Tuple&lt;/span&gt;&lt;span style=&quot;color: #cccccc;&quot;&gt;[&lt;/span&gt;&lt;span style=&quot;color: #4ec9b0;&quot;&gt;str&lt;/span&gt;&lt;span style=&quot;color: #cccccc;&quot;&gt;, &lt;/span&gt;&lt;span style=&quot;color: #4ec9b0;&quot;&gt;Store&lt;/span&gt;&lt;span style=&quot;color: #cccccc;&quot;&gt;]] &lt;/span&gt;&lt;span style=&quot;color: #d4d4d4;&quot;&gt;=&lt;/span&gt;&lt;span style=&quot;color: #cccccc;&quot;&gt; {}&lt;/span&gt;&lt;/div&gt;&lt;div style=&quot;line-height: 133%;&quot;&gt;&lt;span style=&quot;color: #9cdcfe;&quot;&gt;_pg_names&lt;/span&gt;&lt;span style=&quot;color: #cccccc;&quot;&gt;: &lt;/span&gt;&lt;span style=&quot;color: #9cdcfe;&quot;&gt;Dict&lt;/span&gt;&lt;span style=&quot;color: #cccccc;&quot;&gt;[&lt;/span&gt;&lt;span style=&quot;color: #4ec9b0;&quot;&gt;ProcessGroup&lt;/span&gt;&lt;span style=&quot;color: #cccccc;&quot;&gt;, &lt;/span&gt;&lt;span style=&quot;color: #4ec9b0;&quot;&gt;str&lt;/span&gt;&lt;span style=&quot;color: #cccccc;&quot;&gt;] &lt;/span&gt;&lt;span style=&quot;color: #d4d4d4;&quot;&gt;=&lt;/span&gt;&lt;span style=&quot;color: #cccccc;&quot;&gt; {}&lt;/span&gt;&lt;/div&gt;&lt;div style=&quot;line-height: 133%;&quot;&gt;&lt;span style=&quot;color: #9cdcfe;&quot;&gt;_pg_group_ranks&lt;/span&gt;&lt;span style=&quot;color: #cccccc;&quot;&gt;: &lt;/span&gt;&lt;span style=&quot;color: #9cdcfe;&quot;&gt;Dict&lt;/span&gt;&lt;span style=&quot;color: #cccccc;&quot;&gt;[&lt;/span&gt;&lt;span style=&quot;color: #4ec9b0;&quot;&gt;ProcessGroup&lt;/span&gt;&lt;span style=&quot;color: #cccccc;&quot;&gt;, &lt;/span&gt;&lt;span style=&quot;color: #9cdcfe;&quot;&gt;Dict&lt;/span&gt;&lt;span style=&quot;color: #cccccc;&quot;&gt;[&lt;/span&gt;&lt;span style=&quot;color: #4ec9b0;&quot;&gt;int&lt;/span&gt;&lt;span style=&quot;color: #cccccc;&quot;&gt;, &lt;/span&gt;&lt;span style=&quot;color: #4ec9b0;&quot;&gt;int&lt;/span&gt;&lt;span style=&quot;color: #cccccc;&quot;&gt;]] &lt;/span&gt;&lt;span style=&quot;color: #d4d4d4;&quot;&gt;=&lt;/span&gt;&lt;span style=&quot;color: #cccccc;&quot;&gt; {}&lt;/span&gt;&lt;/div&gt;&lt;div style=&quot;line-height: 133%;&quot;&gt;&lt;span style=&quot;color: #6a9955;&quot;&gt;# For a pg, it is a map from ProcessGroup to BackendConfig&amp;nbsp;&amp;nbsp;&lt;/span&gt;&lt;/div&gt;&lt;div style=&quot;line-height: 133%;&quot;&gt;&lt;span style=&quot;color: #9cdcfe;&quot;&gt;_pg_backend_config&lt;/span&gt;&lt;span style=&quot;color: #cccccc;&quot;&gt;: &lt;/span&gt;&lt;span style=&quot;color: #9cdcfe;&quot;&gt;Dict&lt;/span&gt;&lt;span style=&quot;color: #cccccc;&quot;&gt;[&lt;/span&gt;&lt;span style=&quot;color: #4ec9b0;&quot;&gt;ProcessGroup&lt;/span&gt;&lt;span style=&quot;color: #cccccc;&quot;&gt;, &lt;/span&gt;&lt;span style=&quot;color: #4ec9b0;&quot;&gt;str&lt;/span&gt;&lt;span style=&quot;color: #cccccc;&quot;&gt;] &lt;/span&gt;&lt;span style=&quot;color: #d4d4d4;&quot;&gt;=&lt;/span&gt;&lt;span style=&quot;color: #cccccc;&quot;&gt; {}&lt;/span&gt;&lt;/div&gt;&lt;div style=&quot;line-height: 133%;&quot;&gt;&lt;span style=&quot;color: #9cdcfe;&quot;&gt;_group_count&lt;/span&gt;&lt;span style=&quot;color: #cccccc;&quot;&gt; &lt;/span&gt;&lt;span style=&quot;color: #d4d4d4;&quot;&gt;=&lt;/span&gt;&lt;span style=&quot;color: #cccccc;&quot;&gt; &lt;/span&gt;&lt;span style=&quot;color: #b5cea8;&quot;&gt;0&lt;/span&gt;&lt;/div&gt;&lt;div style=&quot;line-height: 133%;&quot;&gt;&lt;span style=&quot;color: #9cdcfe;&quot;&gt;_tags_to_pg&lt;/span&gt;&lt;span style=&quot;color: #cccccc;&quot;&gt;: &lt;/span&gt;&lt;span style=&quot;color: #9cdcfe;&quot;&gt;Dict&lt;/span&gt;&lt;span style=&quot;color: #cccccc;&quot;&gt;[&lt;/span&gt;&lt;span style=&quot;color: #4ec9b0;&quot;&gt;str&lt;/span&gt;&lt;span style=&quot;color: #cccccc;&quot;&gt;, &lt;/span&gt;&lt;span style=&quot;color: #9cdcfe;&quot;&gt;List&lt;/span&gt;&lt;span style=&quot;color: #cccccc;&quot;&gt;[&lt;/span&gt;&lt;span style=&quot;color: #4ec9b0;&quot;&gt;ProcessGroup&lt;/span&gt;&lt;span style=&quot;color: #cccccc;&quot;&gt;]] &lt;/span&gt;&lt;span style=&quot;color: #d4d4d4;&quot;&gt;=&lt;/span&gt;&lt;span style=&quot;color: #cccccc;&quot;&gt; {}&lt;/span&gt;&lt;/div&gt;&lt;div style=&quot;line-height: 133%;&quot;&gt;&lt;span style=&quot;color: #9cdcfe;&quot;&gt;_pg_to_tag&lt;/span&gt;&lt;span style=&quot;color: #cccccc;&quot;&gt;: &lt;/span&gt;&lt;span style=&quot;color: #9cdcfe;&quot;&gt;Dict&lt;/span&gt;&lt;span style=&quot;color: #cccccc;&quot;&gt;[&lt;/span&gt;&lt;span style=&quot;color: #4ec9b0;&quot;&gt;ProcessGroup&lt;/span&gt;&lt;span style=&quot;color: #cccccc;&quot;&gt;, &lt;/span&gt;&lt;span style=&quot;color: #4ec9b0;&quot;&gt;str&lt;/span&gt;&lt;span style=&quot;color: #cccccc;&quot;&gt;] &lt;/span&gt;&lt;span style=&quot;color: #d4d4d4;&quot;&gt;=&lt;/span&gt;&lt;span style=&quot;color: #cccccc;&quot;&gt; {}&lt;/span&gt;&lt;/div&gt;&lt;div style=&quot;line-height: 133%;&quot;&gt;&lt;span style=&quot;color: #9cdcfe;&quot;&gt;_backend&lt;/span&gt;&lt;span style=&quot;color: #cccccc;&quot;&gt;: &lt;/span&gt;&lt;span style=&quot;color: #4ec9b0;&quot;&gt;Optional&lt;/span&gt;&lt;span style=&quot;color: #cccccc;&quot;&gt;[&lt;/span&gt;&lt;span style=&quot;color: #4ec9b0;&quot;&gt;str&lt;/span&gt;&lt;span style=&quot;color: #cccccc;&quot;&gt;] &lt;/span&gt;&lt;span style=&quot;color: #d4d4d4;&quot;&gt;=&lt;/span&gt;&lt;span style=&quot;color: #cccccc;&quot;&gt; &lt;/span&gt;&lt;span style=&quot;color: #569cd6;&quot;&gt;None&lt;/span&gt;&lt;/div&gt;&lt;/div&gt;" style="text;whiteSpace=wrap;html=1;" vertex="1" parent="WIyWlLk6GJQsqaUBKTNV-1">
          <mxGeometry x="-320" y="40" width="340" height="170" as="geometry" />
        </mxCell>
        <mxCell id="DD-LH06I2SyLj-7gW_YG-4" value="" style="endArrow=diamondThin;endFill=1;endSize=24;html=1;rounded=0;entryX=0;entryY=0.5;entryDx=0;entryDy=0;exitX=1;exitY=0.5;exitDx=0;exitDy=0;" edge="1" parent="WIyWlLk6GJQsqaUBKTNV-1" source="DD-LH06I2SyLj-7gW_YG-3" target="DD-LH06I2SyLj-7gW_YG-1">
          <mxGeometry width="160" relative="1" as="geometry">
            <mxPoint x="120" y="290" as="sourcePoint" />
            <mxPoint x="280" y="290" as="targetPoint" />
          </mxGeometry>
        </mxCell>
        <mxCell id="DD-LH06I2SyLj-7gW_YG-5" value="&lt;font size=&quot;1&quot; style=&quot;&quot;&gt;&lt;b style=&quot;font-size: 14px;&quot;&gt;&lt;font color=&quot;#0000ff&quot;&gt;python: &lt;/font&gt;&lt;font color=&quot;#ff0000&quot;&gt;distributed_c10d.py &lt;/font&gt;&lt;br&gt;&lt;font color=&quot;#0000ff&quot;&gt;c++ bind &lt;/font&gt;&lt;font color=&quot;#ff0000&quot;&gt;: torch/csrc/distributed/c10d.init.cpp&lt;/font&gt;&lt;br&gt;&lt;/b&gt;&lt;/font&gt;" style="html=1;whiteSpace=wrap;" vertex="1" parent="WIyWlLk6GJQsqaUBKTNV-1">
          <mxGeometry x="90" y="-250" width="360" height="50" as="geometry" />
        </mxCell>
        <mxCell id="DD-LH06I2SyLj-7gW_YG-6" value="&lt;div style=&quot;color: rgb(204, 204, 204); background-color: rgb(31, 31, 31); font-family: Consolas, &amp;quot;Courier New&amp;quot;, monospace; font-weight: normal; font-size: 14px; line-height: 19px;&quot;&gt;&lt;div&gt;&lt;span style=&quot;color: #dcdcaa;&quot;&gt;_new_process_group_helper&lt;/span&gt;&lt;/div&gt;&lt;/div&gt;" style="text;whiteSpace=wrap;html=1;" vertex="1" parent="WIyWlLk6GJQsqaUBKTNV-1">
          <mxGeometry x="150" y="320" width="200" height="30" as="geometry" />
        </mxCell>
        <mxCell id="DD-LH06I2SyLj-7gW_YG-7" value="&lt;div style=&quot;color: rgb(204, 204, 204); background-color: rgb(31, 31, 31); font-family: Consolas, &amp;quot;Courier New&amp;quot;, monospace; font-weight: normal; font-size: 14px; line-height: 19px;&quot;&gt;&lt;div&gt;&lt;span style=&quot;color: #dcdcaa;&quot;&gt;init_process_group&lt;/span&gt;&lt;/div&gt;&lt;/div&gt;" style="text;whiteSpace=wrap;html=1;" vertex="1" parent="WIyWlLk6GJQsqaUBKTNV-1">
          <mxGeometry x="-130" y="320" width="150" height="30" as="geometry" />
        </mxCell>
        <mxCell id="DD-LH06I2SyLj-7gW_YG-8" value="Use" style="endArrow=open;endSize=12;dashed=1;html=1;rounded=0;exitX=1;exitY=0.5;exitDx=0;exitDy=0;entryX=0;entryY=0.5;entryDx=0;entryDy=0;" edge="1" parent="WIyWlLk6GJQsqaUBKTNV-1" source="DD-LH06I2SyLj-7gW_YG-7" target="DD-LH06I2SyLj-7gW_YG-6">
          <mxGeometry width="160" relative="1" as="geometry">
            <mxPoint y="370" as="sourcePoint" />
            <mxPoint x="160" y="370" as="targetPoint" />
          </mxGeometry>
        </mxCell>
        <mxCell id="DD-LH06I2SyLj-7gW_YG-9" value="Use" style="endArrow=open;endSize=12;dashed=1;html=1;rounded=0;exitX=0.5;exitY=0;exitDx=0;exitDy=0;entryX=0.5;entryY=1;entryDx=0;entryDy=0;" edge="1" parent="WIyWlLk6GJQsqaUBKTNV-1" source="DD-LH06I2SyLj-7gW_YG-6" target="DD-LH06I2SyLj-7gW_YG-1">
          <mxGeometry width="160" relative="1" as="geometry">
            <mxPoint x="280" y="260" as="sourcePoint" />
            <mxPoint x="440" y="260" as="targetPoint" />
          </mxGeometry>
        </mxCell>
        <mxCell id="DD-LH06I2SyLj-7gW_YG-10" value="&lt;div style=&quot;color: rgb(204, 204, 204); background-color: rgb(31, 31, 31); font-family: Consolas, &amp;quot;Courier New&amp;quot;, monospace; font-weight: normal; font-size: 14px; line-height: 19px;&quot;&gt;&lt;div&gt;&lt;span style=&quot;color: #dcdcaa;&quot;&gt;_new_group_with_tag&lt;/span&gt;&lt;/div&gt;&lt;/div&gt;" style="text;whiteSpace=wrap;html=1;" vertex="1" parent="WIyWlLk6GJQsqaUBKTNV-1">
          <mxGeometry x="172.5" y="390" width="155" height="30" as="geometry" />
        </mxCell>
        <mxCell id="DD-LH06I2SyLj-7gW_YG-11" value="Use" style="endArrow=open;endSize=12;dashed=1;html=1;rounded=0;exitX=0.5;exitY=0;exitDx=0;exitDy=0;" edge="1" parent="WIyWlLk6GJQsqaUBKTNV-1" source="DD-LH06I2SyLj-7gW_YG-10" target="DD-LH06I2SyLj-7gW_YG-6">
          <mxGeometry width="160" relative="1" as="geometry">
            <mxPoint x="200" y="420" as="sourcePoint" />
            <mxPoint x="360" y="420" as="targetPoint" />
          </mxGeometry>
        </mxCell>
        <mxCell id="DD-LH06I2SyLj-7gW_YG-12" value="&lt;div style=&quot;color: rgb(204, 204, 204); background-color: rgb(31, 31, 31); font-family: Consolas, &amp;quot;Courier New&amp;quot;, monospace; font-weight: normal; font-size: 14px; line-height: 19px;&quot;&gt;&lt;div&gt;&lt;span style=&quot;color: #dcdcaa;&quot;&gt;new_subgroups&lt;/span&gt;&lt;/div&gt;&lt;/div&gt;" style="text;whiteSpace=wrap;html=1;" vertex="1" parent="WIyWlLk6GJQsqaUBKTNV-1">
          <mxGeometry x="193" y="560" width="110" height="30" as="geometry" />
        </mxCell>
        <mxCell id="DD-LH06I2SyLj-7gW_YG-13" value="&lt;div style=&quot;color: rgb(204, 204, 204); background-color: rgb(31, 31, 31); font-family: Consolas, &amp;quot;Courier New&amp;quot;, monospace; font-weight: normal; font-size: 14px; line-height: 19px;&quot;&gt;&lt;div&gt;&lt;span style=&quot;color: #dcdcaa;&quot;&gt;new_group&lt;/span&gt;&lt;/div&gt;&lt;/div&gt;" style="text;whiteSpace=wrap;html=1;" vertex="1" parent="WIyWlLk6GJQsqaUBKTNV-1">
          <mxGeometry x="209" y="470" width="80" height="30" as="geometry" />
        </mxCell>
        <mxCell id="DD-LH06I2SyLj-7gW_YG-14" value="Use" style="endArrow=open;endSize=12;dashed=1;html=1;rounded=0;exitX=0.5;exitY=0;exitDx=0;exitDy=0;entryX=0.5;entryY=1;entryDx=0;entryDy=0;" edge="1" parent="WIyWlLk6GJQsqaUBKTNV-1" source="DD-LH06I2SyLj-7gW_YG-13" target="DD-LH06I2SyLj-7gW_YG-10">
          <mxGeometry width="160" relative="1" as="geometry">
            <mxPoint x="290" y="440" as="sourcePoint" />
            <mxPoint x="450" y="440" as="targetPoint" />
          </mxGeometry>
        </mxCell>
        <mxCell id="DD-LH06I2SyLj-7gW_YG-15" value="Use" style="endArrow=open;endSize=12;dashed=1;html=1;rounded=0;exitX=0.5;exitY=0;exitDx=0;exitDy=0;entryX=0.5;entryY=1;entryDx=0;entryDy=0;" edge="1" parent="WIyWlLk6GJQsqaUBKTNV-1" source="DD-LH06I2SyLj-7gW_YG-12" target="DD-LH06I2SyLj-7gW_YG-13">
          <mxGeometry width="160" relative="1" as="geometry">
            <mxPoint x="350" y="520" as="sourcePoint" />
            <mxPoint x="510" y="520" as="targetPoint" />
          </mxGeometry>
        </mxCell>
        <mxCell id="DD-LH06I2SyLj-7gW_YG-16" value="&lt;div style=&quot;color: rgb(204, 204, 204); background-color: rgb(31, 31, 31); font-family: Consolas, &amp;quot;Courier New&amp;quot;, monospace; font-weight: normal; font-size: 14px; line-height: 19px;&quot;&gt;&lt;div&gt;&lt;span style=&quot;color: #dcdcaa;&quot;&gt;new_subgroups_by_enumeration&lt;/span&gt;&lt;span style=&quot;color: #cccccc;&quot;&gt;(&lt;/span&gt;&lt;/div&gt;&lt;/div&gt;" style="text;whiteSpace=wrap;html=1;" vertex="1" parent="WIyWlLk6GJQsqaUBKTNV-1">
          <mxGeometry x="370" y="471" width="230" height="30" as="geometry" />
        </mxCell>
        <mxCell id="DD-LH06I2SyLj-7gW_YG-17" value="Use" style="endArrow=open;endSize=12;dashed=1;html=1;rounded=0;exitX=0;exitY=0.5;exitDx=0;exitDy=0;entryX=1;entryY=0.5;entryDx=0;entryDy=0;" edge="1" parent="WIyWlLk6GJQsqaUBKTNV-1" source="DD-LH06I2SyLj-7gW_YG-16" target="DD-LH06I2SyLj-7gW_YG-13">
          <mxGeometry width="160" relative="1" as="geometry">
            <mxPoint x="20" y="500" as="sourcePoint" />
            <mxPoint x="180" y="500" as="targetPoint" />
          </mxGeometry>
        </mxCell>
        <mxCell id="DD-LH06I2SyLj-7gW_YG-18" value="&lt;div style=&quot;color: rgb(204, 204, 204); background-color: rgb(31, 31, 31); font-family: Consolas, &amp;quot;Courier New&amp;quot;, monospace; font-weight: normal; font-size: 14px; line-height: 19px;&quot;&gt;&lt;div&gt;&lt;span style=&quot;color: #dcdcaa;&quot;&gt;_find_or_create_pg_by_ranks_and_tag&lt;/span&gt;&lt;/div&gt;&lt;/div&gt;" style="text;whiteSpace=wrap;html=1;" vertex="1" parent="WIyWlLk6GJQsqaUBKTNV-1">
          <mxGeometry x="-170" y="471" width="280" height="29" as="geometry" />
        </mxCell>
        <mxCell id="DD-LH06I2SyLj-7gW_YG-19" value="Use" style="endArrow=open;endSize=12;dashed=1;html=1;rounded=0;exitX=1;exitY=0.5;exitDx=0;exitDy=0;entryX=0;entryY=0.5;entryDx=0;entryDy=0;" edge="1" parent="WIyWlLk6GJQsqaUBKTNV-1" source="DD-LH06I2SyLj-7gW_YG-18" target="DD-LH06I2SyLj-7gW_YG-13">
          <mxGeometry width="160" relative="1" as="geometry">
            <mxPoint x="150" y="500" as="sourcePoint" />
            <mxPoint x="310" y="500" as="targetPoint" />
          </mxGeometry>
        </mxCell>
        <mxCell id="DD-LH06I2SyLj-7gW_YG-20" value="&lt;div style=&quot;color: rgb(204, 204, 204); background-color: rgb(31, 31, 31); font-family: Consolas, &amp;quot;Courier New&amp;quot;, monospace; font-weight: normal; font-size: 14px; line-height: 19px;&quot;&gt;&lt;div&gt;&lt;span style=&quot;color: #dcdcaa;&quot;&gt;_register_process_group&lt;/span&gt;&lt;span style=&quot;color: #cccccc;&quot;&gt;(&lt;/span&gt;&lt;span style=&quot;color: #9cdcfe;&quot;&gt;group_name&lt;/span&gt;&lt;span style=&quot;color: #cccccc;&quot;&gt;, &lt;/span&gt;&lt;span style=&quot;color: #9cdcfe;&quot;&gt;pg&lt;/span&gt;&lt;span style=&quot;color: #cccccc;&quot;&gt;)&lt;/span&gt;&lt;/div&gt;&lt;/div&gt;" style="text;whiteSpace=wrap;html=1;" vertex="1" parent="WIyWlLk6GJQsqaUBKTNV-1">
          <mxGeometry x="430" y="320" width="310" height="30" as="geometry" />
        </mxCell>
        <mxCell id="DD-LH06I2SyLj-7gW_YG-21" value="Use" style="endArrow=open;endSize=12;dashed=1;html=1;rounded=0;exitX=1;exitY=0.5;exitDx=0;exitDy=0;" edge="1" parent="WIyWlLk6GJQsqaUBKTNV-1" source="DD-LH06I2SyLj-7gW_YG-6" target="DD-LH06I2SyLj-7gW_YG-20">
          <mxGeometry width="160" relative="1" as="geometry">
            <mxPoint x="410" y="400" as="sourcePoint" />
            <mxPoint x="570" y="400" as="targetPoint" />
          </mxGeometry>
        </mxCell>
        <mxCell id="DD-LH06I2SyLj-7gW_YG-22" value="&lt;div style=&quot;color: rgb(204, 204, 204); background-color: rgb(31, 31, 31); font-family: Consolas, &amp;quot;Courier New&amp;quot;, monospace; font-weight: normal; font-size: 14px; line-height: 19px;&quot;&gt;&lt;div&gt;&lt;span style=&quot;color: #569cd6;&quot;&gt;static&lt;/span&gt;&lt;span style=&quot;color: #cccccc;&quot;&gt; GroupRegistry &lt;/span&gt;&lt;span style=&quot;color: #9cdcfe;&quot;&gt;process_registry&lt;/span&gt;&lt;span style=&quot;color: #cccccc;&quot;&gt;;&lt;/span&gt;&lt;/div&gt;&lt;/div&gt;" style="text;whiteSpace=wrap;html=1;" vertex="1" parent="WIyWlLk6GJQsqaUBKTNV-1">
          <mxGeometry x="850" y="320" width="300" height="30" as="geometry" />
        </mxCell>
        <mxCell id="DD-LH06I2SyLj-7gW_YG-23" value="register" style="endArrow=open;endSize=12;dashed=1;html=1;rounded=0;exitX=1;exitY=0.5;exitDx=0;exitDy=0;entryX=0;entryY=0.5;entryDx=0;entryDy=0;" edge="1" parent="WIyWlLk6GJQsqaUBKTNV-1" source="DD-LH06I2SyLj-7gW_YG-20" target="DD-LH06I2SyLj-7gW_YG-22">
          <mxGeometry width="160" relative="1" as="geometry">
            <mxPoint x="760" y="340" as="sourcePoint" />
            <mxPoint x="920" y="340" as="targetPoint" />
          </mxGeometry>
        </mxCell>
        <mxCell id="DD-LH06I2SyLj-7gW_YG-24" value="&lt;p style=&quot;margin:0px;margin-top:4px;text-align:center;&quot;&gt;&lt;b&gt;Class GroupRegistry&lt;/b&gt;&lt;/p&gt;&lt;hr size=&quot;1&quot;&gt;&lt;p style=&quot;margin:0px;margin-left:4px;&quot;&gt;+ &lt;font color=&quot;#7f00ff&quot;&gt;std::map&amp;lt;string, weak_intrusive_ptr&amp;lt;ProcessGroup&amp;gt;&amp;gt; registry_;&lt;/font&gt;&lt;/p&gt;&lt;p style=&quot;margin:0px;margin-left:4px;&quot;&gt;&lt;/p&gt;&lt;hr size=&quot;1&quot;&gt;&lt;p style=&quot;margin:0px;margin-left:4px;&quot;&gt;+ void &lt;font color=&quot;#0000ff&quot;&gt;register_group&lt;/font&gt;(group_name, intrusive_ptr&amp;lt;Processgroup&amp;gt;);&lt;/p&gt;&lt;p style=&quot;margin:0px;margin-left:4px;&quot;&gt;+ intrusive_ptr&amp;lt;ProcessGroup&amp;gt; &lt;font color=&quot;#0000ff&quot;&gt;resolve_group&lt;/font&gt;(group_name);&lt;/p&gt;&lt;p style=&quot;margin:0px;margin-left:4px;&quot;&gt;+ void &lt;font color=&quot;#0000ff&quot;&gt;unregister_group&lt;/font&gt;(string&amp;amp; group_name);&lt;/p&gt;&lt;p style=&quot;margin:0px;margin-left:4px;&quot;&gt;+ void &lt;font color=&quot;#0000ff&quot;&gt;unregister_all_groups&lt;/font&gt;();&lt;/p&gt;" style="verticalAlign=top;align=left;overflow=fill;html=1;whiteSpace=wrap;" vertex="1" parent="WIyWlLk6GJQsqaUBKTNV-1">
          <mxGeometry x="815" y="460" width="370" height="130" as="geometry" />
        </mxCell>
        <mxCell id="DD-LH06I2SyLj-7gW_YG-25" value="instance" style="endArrow=block;endSize=16;endFill=0;html=1;rounded=0;exitX=0.5;exitY=1;exitDx=0;exitDy=0;" edge="1" parent="WIyWlLk6GJQsqaUBKTNV-1" source="DD-LH06I2SyLj-7gW_YG-22" target="DD-LH06I2SyLj-7gW_YG-24">
          <mxGeometry width="160" relative="1" as="geometry">
            <mxPoint x="980" y="400" as="sourcePoint" />
            <mxPoint x="1140" y="400" as="targetPoint" />
          </mxGeometry>
        </mxCell>
        <mxCell id="DD-LH06I2SyLj-7gW_YG-26" value="&lt;div style=&quot;color: rgb(204, 204, 204); background-color: rgb(31, 31, 31); font-family: Consolas, &amp;quot;Courier New&amp;quot;, monospace; font-weight: normal; font-size: 14px; line-height: 19px;&quot;&gt;&lt;div&gt;&lt;span style=&quot;color: #569cd6;&quot;&gt;class&lt;/span&gt;&lt;span style=&quot;color: #cccccc;&quot;&gt; &lt;/span&gt;&lt;span style=&quot;color: #4ec9b0;&quot;&gt;_WorldMeta&lt;/span&gt;&lt;span style=&quot;color: #cccccc;&quot;&gt;(&lt;/span&gt;&lt;span style=&quot;color: #4ec9b0;&quot;&gt;type&lt;/span&gt;&lt;span style=&quot;color: #cccccc;&quot;&gt;):&lt;/span&gt;&lt;/div&gt;&lt;div&gt;&lt;span style=&quot;color: #cccccc;&quot;&gt;&amp;nbsp; &amp;nbsp; &lt;/span&gt;&lt;span style=&quot;color: #ce9178;&quot;&gt;&quot;&quot;&quot;&lt;/span&gt;&lt;/div&gt;&lt;div&gt;&lt;span style=&quot;color: #ce9178;&quot;&gt;&amp;nbsp; &amp;nbsp; Meta class of ``group`` and ``GroupMember``.&lt;/span&gt;&lt;/div&gt;&lt;div&gt;&lt;span style=&quot;color: #ce9178;&quot;&gt;&amp;nbsp; &amp;nbsp; Allows them to have the class property ``WORLD``.&lt;/span&gt;&lt;/div&gt;&lt;div&gt;&lt;span style=&quot;color: #ce9178;&quot;&gt;&amp;nbsp; &amp;nbsp; &quot;&quot;&quot;&lt;/span&gt;&lt;/div&gt;&lt;div&gt;&lt;span style=&quot;color: #cccccc;&quot;&gt;&amp;nbsp; &amp;nbsp;&amp;nbsp;&lt;/span&gt;&lt;span style=&quot;color: #6a9955;&quot;&gt;# Points to the default PG once initialized.&lt;/span&gt;&lt;/div&gt;&lt;div&gt;&lt;span style=&quot;color: #cccccc;&quot;&gt;&amp;nbsp; &amp;nbsp; &lt;/span&gt;&lt;span style=&quot;color: #dcdcaa;&quot;&gt;@&lt;/span&gt;&lt;span style=&quot;color: #4ec9b0;&quot;&gt;property&lt;/span&gt;&lt;/div&gt;&lt;div&gt;&lt;span style=&quot;color: #cccccc;&quot;&gt;&amp;nbsp; &amp;nbsp; &lt;/span&gt;&lt;span style=&quot;color: #569cd6;&quot;&gt;def&lt;/span&gt;&lt;span style=&quot;color: #cccccc;&quot;&gt; &lt;/span&gt;&lt;span style=&quot;color: #9cdcfe;&quot;&gt;WORLD&lt;/span&gt;&lt;span style=&quot;color: #cccccc;&quot;&gt;(&lt;/span&gt;&lt;span style=&quot;color: #9cdcfe;&quot;&gt;cls&lt;/span&gt;&lt;span style=&quot;color: #cccccc;&quot;&gt;) -&amp;gt; &lt;/span&gt;&lt;span style=&quot;color: #4ec9b0;&quot;&gt;Optional&lt;/span&gt;&lt;span style=&quot;color: #cccccc;&quot;&gt;[&lt;/span&gt;&lt;span style=&quot;color: #4ec9b0;&quot;&gt;ProcessGroup&lt;/span&gt;&lt;span style=&quot;color: #cccccc;&quot;&gt;]:&lt;/span&gt;&lt;/div&gt;&lt;div&gt;&lt;span style=&quot;color: #cccccc;&quot;&gt;&amp;nbsp; &amp;nbsp; &amp;nbsp; &amp;nbsp; &lt;/span&gt;&lt;span style=&quot;color: #c586c0;&quot;&gt;return&lt;/span&gt;&lt;span style=&quot;color: #cccccc;&quot;&gt; &lt;/span&gt;&lt;span style=&quot;color: #9cdcfe;&quot;&gt;_world&lt;/span&gt;&lt;span style=&quot;color: #cccccc;&quot;&gt;.&lt;/span&gt;&lt;span style=&quot;color: #9cdcfe;&quot;&gt;default_pg&lt;/span&gt;&lt;/div&gt;&lt;div&gt;&lt;span style=&quot;color: #cccccc;&quot;&gt;&amp;nbsp; &amp;nbsp;&amp;nbsp;&lt;/span&gt;&lt;span style=&quot;color: #dcdcaa;&quot;&gt;@&lt;/span&gt;&lt;span style=&quot;color: #9cdcfe;&quot;&gt;WORLD&lt;/span&gt;&lt;span style=&quot;color: #dcdcaa;&quot;&gt;.&lt;/span&gt;&lt;span style=&quot;color: #dcdcaa;&quot;&gt;setter&lt;/span&gt;&lt;/div&gt;&lt;div&gt;&lt;span style=&quot;color: #cccccc;&quot;&gt;&amp;nbsp; &amp;nbsp; &lt;/span&gt;&lt;span style=&quot;color: #569cd6;&quot;&gt;def&lt;/span&gt;&lt;span style=&quot;color: #cccccc;&quot;&gt; &lt;/span&gt;&lt;span style=&quot;color: #9cdcfe;&quot;&gt;WORLD&lt;/span&gt;&lt;span style=&quot;color: #cccccc;&quot;&gt;(&lt;/span&gt;&lt;span style=&quot;color: #9cdcfe;&quot;&gt;cls&lt;/span&gt;&lt;span style=&quot;color: #cccccc;&quot;&gt;, &lt;/span&gt;&lt;span style=&quot;color: #9cdcfe;&quot;&gt;pg&lt;/span&gt;&lt;span style=&quot;color: #cccccc;&quot;&gt;: &lt;/span&gt;&lt;span style=&quot;color: #4ec9b0;&quot;&gt;Optional&lt;/span&gt;&lt;span style=&quot;color: #cccccc;&quot;&gt;[&lt;/span&gt;&lt;span style=&quot;color: #4ec9b0;&quot;&gt;ProcessGroup&lt;/span&gt;&lt;span style=&quot;color: #cccccc;&quot;&gt;]):&lt;/span&gt;&lt;/div&gt;&lt;div&gt;&lt;span style=&quot;color: #cccccc;&quot;&gt;&amp;nbsp; &amp;nbsp; &amp;nbsp; &amp;nbsp; &lt;/span&gt;&lt;span style=&quot;color: #9cdcfe;&quot;&gt;_world&lt;/span&gt;&lt;span style=&quot;color: #cccccc;&quot;&gt;.&lt;/span&gt;&lt;span style=&quot;color: #9cdcfe;&quot;&gt;default_pg&lt;/span&gt;&lt;span style=&quot;color: #cccccc;&quot;&gt; &lt;/span&gt;&lt;span style=&quot;color: #d4d4d4;&quot;&gt;=&lt;/span&gt;&lt;span style=&quot;color: #cccccc;&quot;&gt; &lt;/span&gt;&lt;span style=&quot;color: #9cdcfe;&quot;&gt;pg&lt;/span&gt;&lt;/div&gt;&lt;/div&gt;" style="text;whiteSpace=wrap;html=1;" vertex="1" parent="WIyWlLk6GJQsqaUBKTNV-1">
          <mxGeometry x="500" y="5" width="410" height="240" as="geometry" />
        </mxCell>
        <mxCell id="DD-LH06I2SyLj-7gW_YG-27" value="Use" style="endArrow=open;endSize=12;dashed=1;html=1;rounded=0;exitX=0;exitY=0.5;exitDx=0;exitDy=0;entryX=1;entryY=0.5;entryDx=0;entryDy=0;" edge="1" parent="WIyWlLk6GJQsqaUBKTNV-1" source="DD-LH06I2SyLj-7gW_YG-26" target="DD-LH06I2SyLj-7gW_YG-1">
          <mxGeometry width="160" relative="1" as="geometry">
            <mxPoint x="310" y="260" as="sourcePoint" />
            <mxPoint x="470" y="260" as="targetPoint" />
          </mxGeometry>
        </mxCell>
        <mxCell id="DD-LH06I2SyLj-7gW_YG-28" value="&lt;div style=&quot;color: rgb(204, 204, 204); background-color: rgb(31, 31, 31); font-family: Consolas, &amp;quot;Courier New&amp;quot;, monospace; font-weight: normal; font-size: 14px; line-height: 19px;&quot;&gt;&lt;div&gt;&lt;span style=&quot;color: #569cd6;&quot;&gt;class&lt;/span&gt;&lt;span style=&quot;color: #cccccc;&quot;&gt; &lt;/span&gt;&lt;span style=&quot;color: #4ec9b0;&quot;&gt;GroupMember&lt;/span&gt;&lt;span style=&quot;color: #cccccc;&quot;&gt;(&lt;/span&gt;&lt;span style=&quot;color: #4ec9b0;&quot;&gt;metaclass&lt;/span&gt;&lt;span style=&quot;color: #d4d4d4;&quot;&gt;=&lt;/span&gt;&lt;span style=&quot;color: #4ec9b0;&quot;&gt;_WorldMeta&lt;/span&gt;&lt;span style=&quot;color: #cccccc;&quot;&gt;):&lt;/span&gt;&lt;/div&gt;&lt;div&gt;&lt;span style=&quot;color: #cccccc;&quot;&gt;&amp;nbsp; &amp;nbsp; &lt;/span&gt;&lt;span style=&quot;color: #ce9178;&quot;&gt;&quot;&quot;&quot;Group member class.&quot;&quot;&quot;&lt;/span&gt;&lt;/div&gt;&lt;div&gt;&lt;span style=&quot;color: #cccccc;&quot;&gt;&amp;nbsp; &amp;nbsp;&amp;nbsp;&lt;/span&gt;&lt;span style=&quot;color: #9cdcfe;&quot;&gt;NON_GROUP_MEMBER&lt;/span&gt;&lt;span style=&quot;color: #cccccc;&quot;&gt; &lt;/span&gt;&lt;span style=&quot;color: #d4d4d4;&quot;&gt;=&lt;/span&gt;&lt;span style=&quot;color: #cccccc;&quot;&gt; &lt;/span&gt;&lt;span style=&quot;color: #d4d4d4;&quot;&gt;-&lt;/span&gt;&lt;span style=&quot;color: #b5cea8;&quot;&gt;100&lt;/span&gt;&lt;/div&gt;&lt;/div&gt;" style="text;whiteSpace=wrap;html=1;" vertex="1" parent="WIyWlLk6GJQsqaUBKTNV-1">
          <mxGeometry x="1010" y="92.5" width="320" height="65" as="geometry" />
        </mxCell>
        <mxCell id="DD-LH06I2SyLj-7gW_YG-29" value="Extends" style="endArrow=block;endSize=16;endFill=0;html=1;rounded=0;exitX=0;exitY=0.5;exitDx=0;exitDy=0;entryX=1;entryY=0.5;entryDx=0;entryDy=0;" edge="1" parent="WIyWlLk6GJQsqaUBKTNV-1" source="DD-LH06I2SyLj-7gW_YG-28" target="DD-LH06I2SyLj-7gW_YG-26">
          <mxGeometry width="160" relative="1" as="geometry">
            <mxPoint x="1010" y="-30" as="sourcePoint" />
            <mxPoint x="1170" y="-30" as="targetPoint" />
          </mxGeometry>
        </mxCell>
      </root>
    </mxGraphModel>
  </diagram>
</mxfile>
